<?xml version="1.0" standalone="no"?>
<!DOCTYPE svg PUBLIC "-//W3C//DTD SVG 20010904//EN"
 "http://www.w3.org/TR/2001/REC-SVG-20010904/DTD/svg10.dtd">
<svg version="1.0" xmlns="http://www.w3.org/2000/svg"
 width="162.000000pt" height="162.000000pt" viewBox="0 0 162.000000 162.000000"
 preserveAspectRatio="xMidYMid meet">
<metadata>
Created by potrace 1.14, written by Peter Selinger 2001-2017
</metadata>
<g transform="translate(0.000000,162.000000) scale(0.100000,-0.100000)"
fill="#000000" stroke="none">
<path d="M120 1465 l0 -45 73 0 c49 0 80 -5 95 -16 l22 -15 0 -575 c0 -672 11
-614 -115 -614 l-75 0 0 -45 0 -45 360 0 360 0 0 45 0 45 -85 0 c-131 0 -125
-14 -125 291 l0 251 103 -4 c84 -3 112 -8 159 -30 67 -31 89 -62 113 -157 65
-257 109 -368 166 -415 28 -24 39 -26 119 -26 101 0 130 8 166 47 56 60 79
138 49 163 -25 21 -49 6 -78 -48 -33 -61 -67 -83 -93 -61 -21 18 -42 66 -114
268 -67 186 -98 243 -157 286 -23 16 -42 32 -42 35 -1 3 20 12 45 19 65 19
160 86 200 140 48 65 68 138 61 227 -13 171 -107 269 -297 310 -50 10 -165 14
-487 14 l-423 0 0 -45z m420 -655 l0 -610 -35 0 -35 0 0 610 0 610 35 0 35 0
0 -610z m437 581 c59 -26 115 -82 139 -138 21 -51 21 -157 0 -208 -23 -55 -69
-99 -130 -126 -44 -20 -72 -24 -203 -27 l-153 -4 0 244 c0 313 -13 291 164
286 110 -3 139 -7 183 -27z"/>
</g>
</svg>
