<?xml version="1.0" standalone="no"?>
<!DOCTYPE svg PUBLIC "-//W3C//DTD SVG 20010904//EN"
 "http://www.w3.org/TR/2001/REC-SVG-20010904/DTD/svg10.dtd">
<svg version="1.0" xmlns="http://www.w3.org/2000/svg"
 width="162.000000pt" height="162.000000pt" viewBox="0 0 162.000000 162.000000"
 preserveAspectRatio="xMidYMid meet">
<metadata>
Created by potrace 1.14, written by Peter Selinger 2001-2017
</metadata>
<g transform="translate(0.000000,162.000000) scale(0.100000,-0.100000)"
fill="#000000" stroke="none">
<path d="M110 1471 l0 -51 73 0 c49 0 80 -5 95 -16 l22 -15 0 -578 c0 -526 -2
-580 -17 -592 -9 -8 -48 -15 -95 -18 l-78 -3 0 -44 0 -44 365 0 365 0 0 44 0
44 -83 3 c-52 3 -90 9 -100 18 -15 12 -17 43 -17 267 l0 254 69 0 c78 0 184
-29 225 -61 38 -30 50 -58 85 -201 50 -206 99 -317 158 -355 21 -14 48 -18
124 -18 85 0 100 3 131 24 53 36 81 84 86 146 4 51 3 54 -21 60 -34 9 -40 4
-76 -60 -67 -119 -87 -100 -187 182 -68 191 -105 263 -158 309 -21 18 -38 35
-35 37 2 2 25 11 50 21 105 38 204 136 229 224 15 57 12 183 -7 241 -21 66
-81 135 -145 167 -102 52 -149 56 -620 61 l-438 5 0 -51z m420 -662 l0 -610
-27 3 -28 3 -3 608 -2 607 30 0 30 0 0 -611z m421 586 c99 -35 167 -121 176
-224 7 -78 -11 -135 -59 -187 -61 -66 -122 -85 -290 -92 l-138 -5 0 251 c0
307 -11 286 155 279 64 -3 129 -12 156 -22z"/>
</g>
</svg>
